<svg xmlns="http://www.w3.org/2000/svg" xmlns:xlink="http://www.w3.org/1999/xlink" viewBox="0 0 69.85 101.82"><defs><style>.cls-1{fill:none;}.cls-2{opacity:0.8;}.cls-3{clip-path:url(#clip-path);}.cls-4,.cls-5{fill:#dc7772;}.cls-4{fill-rule:evenodd;}</style><clipPath id="clip-path"><rect class="cls-1" width="69.85" height="101.82"/></clipPath></defs><title>Asset 2</title><g id="Layer_2" data-name="Layer 2"><g id="Layer_1-2" data-name="Layer 1"><g class="cls-2"><g class="cls-3"><path class="cls-4" d="M47,77.19a10.5,10.5,0,0,0-3.62.92.31.31,0,0,1-.24,0c-4.16,1-6.67,4.36-10.62,5.69-.28.21-.56.4-.85.58a.35.35,0,0,1-.48-.48,10.73,10.73,0,0,1,3.56-3.08c.29-.19.57-.39.85-.6A16,16,0,0,1,37.19,79c.43-.33.86-.66,1.32-1,1.4-.91,3-1.5,4.38-2.41,2-1.34,4.9-2.28,6-4.65h0a15.92,15.92,0,0,0-3.2.28,19.29,19.29,0,0,0-4.27,1.07.29.29,0,0,1-.21,0c-1,.49-2,1.11-2.91,1.67-1.23.72-2.44,1.46-3.6,2.29s-2.24,1.63-3.42,2.36a.32.32,0,0,1-.46-.12h0l0,0a.34.34,0,0,1,.11-.48c.37-.23.73-.46,1.09-.71,2.32-2.06,5.24-3.4,7.77-5.43,1-.8,2-1.56,3-2.29a5.38,5.38,0,0,0,2-2.42l-.3,0a28.11,28.11,0,0,0-3.74.82,33.81,33.81,0,0,0-4,1.52,15.91,15.91,0,0,0-1.88.88c-.55.34-1.05.76-1.63,1.06a.32.32,0,0,1-.14.18l-.21.12c-.07,0-.13.1-.19.14l0,0-.09.08-.17.15a3.46,3.46,0,0,1-.82.56.42.42,0,0,1-.22,0,.34.34,0,0,1-.41-.54,10.45,10.45,0,0,1,1-1.16.36.36,0,0,1,.3-.07,17.29,17.29,0,0,1,2.72-2.14c1-.64,2.57-.88,3.09-2a6,6,0,0,0-2.38.57q-1.39.78-2.71,1.69a17.13,17.13,0,0,0-2.47,2c-.56.56-1.08,1.16-1.59,1.76a.88.88,0,0,0,0,.15,2.38,2.38,0,0,0-.31.22l-.15.17a.33.33,0,0,1-.13.09,1.43,1.43,0,0,0,.26,2.37c1.1,0,1.67-1.09,2.58-1.76a40.1,40.1,0,0,1,4.32-2.45,38.12,38.12,0,0,1,4.46-2.21,17.56,17.56,0,0,1-2.58,2.05.28.28,0,0,1-.11.2c-.93.75-1.84,1.54-2.79,2.25s-2,1.38-3,2.12c-.67.5-1.32,1-2,1.55-.49.52-1,1-1.49,1.54a11.56,11.56,0,0,0-1.24,2,.31.31,0,0,1,.16.06,2.07,2.07,0,0,0,2.1-.11c.71-.34,1.4-.75,2.09-1.13,1.54-.86,2.92-1.92,4.39-2.88a.31.31,0,0,1,.25,0A45.92,45.92,0,0,1,44.07,73c-.85.74-2,1.24-2.77,2a56.69,56.69,0,0,0-9.77,6.82.35.35,0,0,1-.14.28,9.75,9.75,0,0,0-2.72,2.9,3.55,3.55,0,0,0-.36,1,9.89,9.89,0,0,0,3.25-.17,21.91,21.91,0,0,0,3.22-1.41.37.37,0,0,1,.19,0h0a52.23,52.23,0,0,0,6.22-3.6,15.64,15.64,0,0,1,6-2.35.35.35,0,0,1,.3.52,10.25,10.25,0,0,1-3.41,3.19A25.18,25.18,0,0,1,40.3,84c-.81.32-1.59.7-2.37,1.06s-1.58.63-2.33,1a5.67,5.67,0,0,0-1.7,1.43,4.89,4.89,0,0,0-.56.79.35.35,0,0,1,0,.16l0,.08v0s0,.12,0,.16,0,0,0,.07,0,.1,0,0h0v0l0,.07a.77.77,0,0,0,0,.13h0l0,.07,0,.08a4.36,4.36,0,0,0,2.42.28c.79,0,1.58-.17,2.37-.26A15.32,15.32,0,0,0,41.87,88c.63-.23,1.27-.42,1.89-.69a8.23,8.23,0,0,0,1.67-1c.9-.67,1.74-1.41,2.66-2.06l0,0c.13-.34,0-.46-.17-.65a7,7,0,0,0-1.75.67c-1.15.63-2.27,1.3-3.43,1.91s-2.24,1.13-3.39,1.61a8,8,0,0,1-3.38.79.46.46,0,0,1-.37-.64,15.48,15.48,0,0,1,4-2.16c1.46-.67,2.92-1.34,4.31-2.13a20.36,20.36,0,0,0,3.8-2.65,31.49,31.49,0,0,0,2.91-3.78.29.29,0,0,1,.16-.1c0-.09,0-.17,0-.26a17.18,17.18,0,0,0-3.86.4"/><path class="cls-5" d="M65.86,4.6a15.75,15.75,0,0,0-2.47-2.7A11.39,11.39,0,0,0,61.89.77C61.45.48,61,.24,60.52,0c-.11.21-.17.41,0,.53,6.6,6.89,9.61,16.69,6.89,26-.19.66,1.34-.41,1.49-.92A26.25,26.25,0,0,0,66.94,6.45c-.35-.62-.67-1.26-1.08-1.85"/><path class="cls-5" d="M60.9,19.77a37,37,0,0,0-.68-4.7c-.68-3.21-2.76-5.75-4.35-8.55h0c-.29-.21-.59-.41-.9-.6a23.79,23.79,0,0,0-2.43-1.28l-1.25-.55h0l0,0L51,3.93l-.3-.12a.43.43,0,0,0,.1.51c4.93,3.84,8.75,9,9.74,15.25,0,.22.2.25.4.2"/><path class="cls-5" d="M13.77,96.25A35.17,35.17,0,0,1,8.64,84.73a1.45,1.45,0,0,1,0-.34,25.31,25.31,0,0,1-1.19-4.11,2.22,2.22,0,0,1,0-.72l0-.17c-.12-.87-.7.8-.65,1.17C7.88,89,10.94,98,19.24,101.82c.08,0,.18-.1.28-.3a20.39,20.39,0,0,1-5.75-5.27"/><path class="cls-5" d="M2.49,89.35a20.47,20.47,0,0,1-.77-3.43,22.41,22.41,0,0,1-.65-4.05,16,16,0,0,0-.67-2.39,1.25,1.25,0,0,1,0-.15,1.07,1.07,0,0,0-.38.76c-.25,5.63,1.79,10.56,4,15.63.2.47.56,0,.74-.52-.81-1.92-1.58-3.87-2.25-5.84"/><path class="cls-4" d="M38.26,15.48c.3,0,.17.51.52.42,0,.28-.23.38-.59.38.12-.51-.09-.41.07-.8"/><path class="cls-4" d="M53.24,53.77q-.37-5.13-.53-10.28c-.11-3.48.17-6.95.1-10.42-.11-5.64-3.89-10.46-5.2-15.83a1.49,1.49,0,0,1,.29-1.3c-.15-.82-.27-1.65-.41-2.48-.1-.56-.21-1.11-.37-1.66-.07-.25-.15-.49-.23-.73l0-.08-.15-.3a1.77,1.77,0,0,1-.19-.9c-1.46-.32-3.4.26-5.51.64-6.64,1.21-12.93,3.21-18.57,4.62-3.41.85-6.84,2.09-9.83,2.37C12,17.1,12,16,11.72,15.16h0a1.71,1.71,0,0,1-.86.29h-.25l-.43.1-.44.15-.1,0-.09.05a11.18,11.18,0,0,0-1,.58l-.34.24-.23.2a7.36,7.36,0,0,0-.72.74l-.12.17c-.07.12-.13.23-.2.35l0,0v0c0-.06.07-.1,0,0s0,0,0,0,.05.24.09.36c.08.28.18.56.29.83l.1.21.2.42c.31.64.65,1.25,1,1.87.58,1,1.21,2,1.7,3.1A1.76,1.76,0,0,1,10,27.79v0c-.26.17-.53.31-.8.46a10.87,10.87,0,0,0-4,9.09v.12c0,.18.06.37.09.55q.12.62.3,1.21c.06.2.12.4.19.59l.1.27v0c.05.11.12.21.17.31a1.32,1.32,0,0,1,.28.15,1.29,1.29,0,0,1,.35.38l.1,0a10,10,0,0,1,1.4.67,1.27,1.27,0,0,1,.41.38,1.4,1.4,0,0,1,.91,1c.43,3.09,1.71,5.83,2.69,8.75a36.32,36.32,0,0,1,1.83,6,108.3,108.3,0,0,1,4.06,12.36c1.25,4.67,3.21,9.1,4.43,13.78.59,2.27.82,4.59,1.27,6.89.07.35.12.71.18,1.06a6.41,6.41,0,0,1,1.07.4.61.61,0,0,1-.19.34,19.12,19.12,0,0,0,9.72,3.65,33.59,33.59,0,0,0,10.72-.94,20.56,20.56,0,0,0,9.6-5.54,15.71,15.71,0,0,0,2.52-3.57,323.42,323.42,0,0,1-4.15-32.56M36.39,14.27c.24-.56.58.2,1,0-.21-.27-.3-.69-.71-.71.13-.43.83-.11.68.4,1.09-.33,2.67.11,2.39-1.22.27.13.41.38.23.61.26-.14,1.59-.83,1.24-.14.42,0,.37-.37.4-.68.25,0,.19.48.66.24s-.22-.23.1-.49c.18,0,.27-.07.29-.19.18,0,.1.14,0,.15,0,.26.18.25.21.45.21-.07.09-.4.09-.64.91-.3,1.48,0,2-.23-.13.11.94.95,1,.2.41-.09,0,.89.54.57,0,.22-.37.17-.6.23.36.39.57.95,1.35.79,0,.51.35.45.09.78-.45-.27-.39-.35-.56-.72a.43.43,0,0,0-.26.5c-.34,0-.38-.35-.4-.74-.13.08-.26.17-.28.35-.06.49.56.13.4.74-.59,0-.78-.55-1.61-.29.16.59.59-.19,1,.21-.08.17-.34.2-.26.5-.65.41-1.25-.68-1.07.28-.42,0-.45-.39-.7-.55a2,2,0,0,1-1.66.66c0-.18.27-.17.45-.21-.23-.26-1.48-.15-1.21.45-1.42-.17-1.17.14-2.35.11-.19-.54-.71-.65-.78-1.33-.3.4.33,1.13-.55.69-.06.49.22.55.26.92-.59,0-.18-.69-.81-.22.35-1-.46-.31-.59-1,.42-.06.34.22.62-.07,0-.34-.18-.48-.52-.42m-21,5.3c2.89-1.54,6-1.63,9.17-2.25s6.3-2.14,9.62-1.76a1.72,1.72,0,0,1,1.62,1.6s0,.09,0,.14a1.3,1.3,0,0,1,0,.68v0a14.63,14.63,0,0,0-.07,1.69,1.77,1.77,0,0,1-.5,1.2,1.72,1.72,0,0,1-1.2.5,1.28,1.28,0,0,1-.23-.05,54.08,54.08,0,0,0-17.51,3.42,3.37,3.37,0,0,1-.24-.51,1.68,1.68,0,0,1-.49-.38,3.36,3.36,0,0,1-.9-2,1.06,1.06,0,0,1,0-.28,1.48,1.48,0,0,1,.68-2m-5.44,2c-.34.46-.57-.8-.78-1.33-.41,0-.05.62-.57.54-.08-.59.79-1.75.1-1.9,0-.39.56-.4.36-1a6.54,6.54,0,0,0,1.64.61C10.61,19,12,19.8,13.2,19.89a.43.43,0,0,1-.26.5c1.05,1.3,0,2.51.46,4.05,0,.18.16.07.15,0,.36.48-.48,1.53,0,1.73-.34.46-1.1-.15-1.54.33,0-.49-1.23-.93-.45-1.21-.07-.27-.31-.32-.66-.24.18-1.7-1-2-1-3.51M7.56,32.78a1.72,1.72,0,0,1,1.3-1.72c.1-.13.2-.27.31-.39l.13-.14.24-.19.24-.18.17-.09h0A18.57,18.57,0,0,1,16.3,26.8a46.59,46.59,0,0,1,7.55-2c3.12-.51,6.26-.9,9.39-1.38.93-.14,3.76-.17,4-1.38,0-1.2-.21-2.61-.12-3.76-.05-.43,1.73-.18,1.4-.16,1.55-.08,4.78-.66,7.91-1.21a64.35,64.35,0,0,0,2,7.46,1.66,1.66,0,0,1-.14,2.78,42.88,42.88,0,0,1-9.1,3.51c-3.17.95-6.32,2-9.55,2.72-6.74,1.49-13.6.57-20.43,1a1.43,1.43,0,0,1-1.58-1.29L7.27,33l.3-.24m.57,6.88A1.38,1.38,0,0,1,7.07,39a1.84,1.84,0,0,1-.36-1.8,3.75,3.75,0,0,1-.23-1.37A76.42,76.42,0,0,0,32.18,34.3c.32-.07.18-.19.45-.21,1.09-.06,3.31-1.24,5-1.67.53-.13,1.21,0,1.72-.19.75-.24,1.53-.69,2.72-1.09,2.57-.86,5.59-2.41,8.13-3.44l.16,0c.72.91.31,2.24.56,3.56l-.28.15a1.5,1.5,0,0,1-.74,1.82C37.22,40.3,22.33,41.91,8.14,39.66M50.34,90.31C46.59,93,43,94.15,36.76,94.37c-4.6.17-8.17.08-10.85-2.4,0-.06,0-.14.06-.21a1.57,1.57,0,0,1-1.15-1.1C23.53,86.54,23.26,82.18,22,78c-1.13-3.74-2.67-7.32-3.67-11.11S16.1,59.32,15,55.52a60.45,60.45,0,0,0-4.14-11c0-.09,0-.17-.05-.26a1.85,1.85,0,0,1-.07-2.34l-.11-.31a.55.55,0,0,0,.31.14,1.55,1.55,0,0,1,1-.39,1.51,1.51,0,0,1,.32.07h0l.07,0h0a24,24,0,0,1,5.07.61A97.27,97.27,0,0,0,38.94,39.7a43.12,43.12,0,0,0,11.63-4.63c.13,0,.15,0,.17.14.31,15.7,2.91,34.54,5.39,50.51-1.2,1.64-3.58,3-5.79,4.6"/><path class="cls-4" d="M38.26,15.48c.3,0,.17.51.52.42,0,.28-.23.38-.59.38.12-.51-.09-.41.07-.8"/><path class="cls-4" d="M9,17.83a6.57,6.57,0,0,0,1.64.6C10.61,19,12,19.8,13.2,19.89a.43.43,0,0,1-.26.5c1.05,1.3,0,2.51.46,4,0,.18.16.07.15,0,.36.48-.48,1.53,0,1.73-.34.46-1.1-.15-1.54.33,0-.49-1.23-.93-.45-1.21-.07-.27-.31-.32-.66-.24.18-1.7-1-2-1-3.51-.34.46-.57-.8-.78-1.33-.42,0-.05.62-.57.54-.08-.59.79-1.76.1-1.91,0-.39.56-.4.36-1"/><path class="cls-5" d="M9.11,19.52c0,2.12.26,5.69,2.8,6.31.23.05,1.13-.15,1.11-.49-.21-2.47-1.86-4.4-2.61-6.7l-1.14.45a9.47,9.47,0,0,1,2,5.33L12.45,24a11.6,11.6,0,0,1-1.61-3.32c-.07-.22-1.21.18-1.14.45a47,47,0,0,0,1.36,4.79c.08.23,1.17-.17,1.14-.45l-.07-.61L11,25.27a4.9,4.9,0,0,0,.75,1.15c.18.2.74-.1.91-.2,2.33-1.31.62-4.66.33-6.64,0-.18-1.18.14-1.14.45.25,2.17.46,4.34.53,6.52,0,.14,1.14-.11,1.14-.45,0-3.6.54-7.43-3.51-8.91-.23-.08-1.06.15-1.1.43a7,7,0,0,0-.11,2.74l1.14-.45-.25-.38c-.15-.22-1.18.18-1.14.45a6.88,6.88,0,0,0,.91,2.57c.14.24,1.16-.18,1.14-.45-.06-.89,0-1.78-.09-2.67l-1.14.45c.51.52,1.13.92,1.61,1.46.19.21,1.14-.17,1.14-.45a11.32,11.32,0,0,0-.6-3.43l-1.14.45a10.11,10.11,0,0,0,2.19,2.67c.18.15,1.22-.32,1.1-.48-.68-1-1.61-2.48-3.05-2S8.85,20,8.71,21.36L9.85,21a5,5,0,0,1,1.44-3.14c.21-.26-.88,0-1,.23A5.39,5.39,0,0,0,8.7,21.41c0,.14,1.11-.12,1.14-.4a8.16,8.16,0,0,1,.42-2c.46-1.27,2,1.21,2.26,1.55l1.1-.49a9.69,9.69,0,0,1-2.11-2.6c-.13-.23-1.22.2-1.14.45A11.31,11.31,0,0,1,11,21.36l1.14-.45c-.48-.54-1.1-.94-1.61-1.46-.19-.2-1.16.16-1.14.45.06.89,0,1.78.1,2.66l1.14-.45a6.91,6.91,0,0,1-.91-2.58L8.54,20l.25.38c.14.22,1.2-.19,1.14-.45A6.86,6.86,0,0,1,10,17.29l-1.1.43c4,1.46,3.46,5.29,3.44,8.83l1.14-.45c-.07-2.19-.29-4.36-.53-6.53L11.84,20c.22,1.47,1.88,5.16.13,6.14l.91-.2a5,5,0,0,1-.75-1.15C12,24.59,11,25,11,25.27l.07.61,1.14-.45a48,48,0,0,1-1.36-4.79l-1.14.45a11.58,11.58,0,0,0,1.61,3.32c.16.23,1.15-.18,1.14-.45a9.49,9.49,0,0,0-2-5.33c-.16-.21-1.22.2-1.14.45.75,2.31,2.4,4.23,2.61,6.7L13,25.31c-2.49-.61-2.68-4.16-2.73-6.24,0-.13-1.15.11-1.14.45"/><path class="cls-5" d="M47.49,13.46c-.06-.36-.15-.71-.24-1.06a2.46,2.46,0,0,0-.68-.21,5.54,5.54,0,0,0-3-.52,27.79,27.79,0,0,0-3.65.81c-.54-.56-1.87,0-2.6.48-1,.14-2.16.73-2.27,1.43,0,.17,0,.31,0,.47a2.31,2.31,0,0,0-.49.79,1.67,1.67,0,0,1,1.24,1.43,1.14,1.14,0,0,1,.07.22s0,.09,0,.14a5.83,5.83,0,0,0,3.91-1.66,1.55,1.55,0,0,0,.38.11A9.05,9.05,0,0,0,45.81,15a3.64,3.64,0,0,0,1.82-.67c0-.29-.09-.57-.14-.86"/><path class="cls-5" d="M14.68,25.86c-.57-1.55-.48-3.28-1-4.85A2.32,2.32,0,0,0,12.1,19.5c-.43-.07-2.51.13-1.6-.86,1.64-1.77-1.31-2.85-2.57-1.47A3.85,3.85,0,0,0,7,18.79c.06.2.13.39.2.58l.1.22.2.42c.31.64.65,1.25,1,1.87l.11.18a3.06,3.06,0,0,0,.53.17,2.08,2.08,0,0,0,.88,0c.49-.1.55-.07.18.1a6.37,6.37,0,0,1,.39,1.7,16.17,16.17,0,0,0,.63,3.15c.62,1.69,4,.34,3.43-1.35"/></g></g></g></g></svg>