<svg xmlns="http://www.w3.org/2000/svg" viewBox="0 0 151.61 141.39"><defs><style>.cls-1{fill:#f7ead8;}</style></defs><title>Asset 2</title><g id="Layer_2" data-name="Layer 2"><g id="Layer_1-2" data-name="Layer 1"><path class="cls-1" d="M62.73,44.82C70.65,37.06,88.59,48,95,52.77c8.25,6.07,18.57,18.75,12,29.92-6.15,10.43-25.27,15.24-36.06,15.52-15.15.39-22.23-9.46-26.7-23.06-1.58-4.8-3.61-12.15-2.45-16.2,1.46-5.11,1.5-3.07,5.19-2.89,7.22.36,15.23,4.64,21.34,8.17,2.64,1.52,13.56,12.31,14.93,12a7.7,7.7,0,0,1,2.43-6.7,42.34,42.34,0,0,1-5.53,3.59,50,50,0,0,1-9.46,4c-4.06,1.21-7.86,1.57-11.13-1.68.32.32-3.4-6-2.67-5.55,2.64,1.44-9.17,6.57-9.79,5.11.1.24,6.61,2.54,7,2.76a40.75,40.75,0,0,1,4.7,4.46l-.56-11L63,63.85l10.21-3.62-2,0c-11.41.14-20.56,12.22-20,23.32.65,12.32,10.78,20,22.23,19.88,17.51-.22,29.7-18.94,25.58-35.58C95.29,52.81,81.16,41.69,67.66,36c-12.79-5.37-27.37-6.36-39.23,2.65-14.08,10.7-16,31-11.39,46.78C26.38,117.22,60.8,128,89.4,115.7c12.52-5.36,26.39-12.73,32.49-26,7.78-17,1.4-34.07-10.38-46.44C93.57,24.39,58.18,5.12,31.37,14.34.92,24.81-4.91,60.64,3.48,87.86c9.28,30.14,30.67,52.39,62.87,53.48,27.6.93,61.3-11.86,76.56-37.06,38.55-63.68-60.47-137.7-111.27-88-8.36,8.18-6.71,23.31,1.22,30.57,9,8.21,21.47,6.17,29.87-2"/></g></g></svg>