<svg xmlns="http://www.w3.org/2000/svg" viewBox="0 0 152.19 141.58"><defs><style>.cls-1{fill:#d25b5b;}</style></defs><title>Asset 3</title><g id="Layer_2" data-name="Layer 2"><g id="Layer_1-2" data-name="Layer 1"><path class="cls-1" d="M90.75,96.11c-7.4,8.26-26-1.51-32.74-5.8C49.38,84.8,38.24,72.82,44.07,61.24c5.45-10.81,24.21-16.87,35-17.86,15.09-1.39,22.8,8,28.16,21.25,1.89,4.69,4.4,11.89,3.51,16-1.12,5.19-1.29,3.16-5,3.22-7.23.11-15.5-3.63-21.84-6.74-2.73-1.34-14.35-11.39-15.69-11a7.69,7.69,0,0,1-2,6.84A42.36,42.36,0,0,1,71.49,69a50,50,0,0,1,9.18-4.56c4-1.47,7.74-2.09,11.22.94-.34-.3,3.79,5.71,3,5.37-2.73-1.27,8.72-7.17,9.43-5.75-.12-.23-6.77-2.1-7.13-2.3a40.76,40.76,0,0,1-5-4.14l1.29,11-4.31,7.57-9.95,4.29,2-.16c11.37-.9,19.71-13.54,18.4-24.58C98.23,44.43,87.61,37.41,76.2,38.31,58.74,39.69,47.81,59.16,53,75.5c4.71,14.78,19.54,24.94,33.38,29.71,13.11,4.52,27.73,4.54,39-5.24,13.34-11.6,13.93-32,8.28-47.43C122.24,21.47,87.19,13,59.46,27.14,47.32,33.32,34,41.59,28.76,55.25c-6.65,17.43.85,34.09,13.42,45.66C61.31,118.53,97.9,135.42,124,124.45c29.69-12.45,33.14-48.59,23-75.2C135.78,19.79,113-1,80.76,0c-27.61.89-60.38,15.87-73.95,42-34.27,66.08,69.42,133.41,116.83,80.46,7.81-8.72,5.16-23.7-3.23-30.43-9.48-7.6-21.83-4.74-29.66,4"/></g></g></svg>