<svg xmlns="http://www.w3.org/2000/svg" viewBox="0 0 131.89 162.12"><defs><style>.cls-1{fill:#dc7772;}</style></defs><title>Asset 18</title><g id="Layer_2" data-name="Layer 2"><g id="Layer_1-2" data-name="Layer 1"><g id="ART:_Program_benefits_how_it_works" data-name="ART: Program benefits + how it works"><path class="cls-1" d="M22.08,12.56c.32-.32,1.06.13,1.33.33s.77.77.5,1.24a2,2,0,0,1-1.5.64c-.62,0-.91-.39-1.1-1a1.46,1.46,0,0,1-.1-.67c.06-.21.06-.12.21-.11a2.24,2.24,0,0,1,.89.33c.11.07.56.51.61.5a.33.33,0,0,1,.1-.28,1.07,1.07,0,0,1-.22.15,2,2,0,0,1-.4.16.41.41,0,0,1-.46-.07s-.14-.24-.11-.23-.37.28-.4.22l.29.11a1.79,1.79,0,0,1,.19.18l0-.45.2-.3.42-.15h-.09a.91.91,0,0,0-.82,1,.87.87,0,0,0,.92.82,1.18,1.18,0,0,0,1.06-1.47,2.14,2.14,0,0,0-1.3-1.31,1.55,1.55,0,0,0-1.62.11,1.8,1.8,0,0,0-.47,1.93,2.13,2.13,0,0,0,3,1.25,2.42,2.42,0,0,0,1.34-1.07,1.7,1.7,0,0,0-.43-1.92c-.74-.78-2.2-1.58-3.31-1.2-1.26.43-1.5,1.91-1.15,3a2.8,2.8,0,0,0,2.6,2.21A3.66,3.66,0,0,0,25.39,15c1.59-2.63-2.5-5.69-4.6-3.64a.92.92,0,0,0,.05,1.27.89.89,0,0,0,1.24-.09Z"/><path class="cls-1" d="M36.68,3.73c.32-.32,1.07.13,1.33.33s.77.77.5,1.24A2,2,0,0,1,37,5.94c-.63,0-.92-.39-1.11-1a1.48,1.48,0,0,1-.1-.67c.06-.21.06-.12.21-.12a2.42,2.42,0,0,1,.89.34c.11.06.56.51.61.5a.34.34,0,0,1,.11-.28,1.5,1.5,0,0,1-.23.15,2.66,2.66,0,0,1-.39.16A.41.41,0,0,1,36.55,5s-.15-.24-.12-.23S36.06,5,36,5s.27.11.29.12a1.14,1.14,0,0,1,.19.18l0-.45.2-.3.42-.15H37a.92.92,0,0,0-.83,1,.87.87,0,0,0,.92.82,1.19,1.19,0,0,0,1.06-1.47,2.14,2.14,0,0,0-1.3-1.31,1.55,1.55,0,0,0-1.62.11,1.8,1.8,0,0,0-.47,1.93,2.13,2.13,0,0,0,3,1.25,2.4,2.4,0,0,0,1.34-1.08,1.71,1.71,0,0,0-.43-1.92c-.74-.77-2.2-1.57-3.31-1.19-1.26.43-1.5,1.91-1.15,3a2.83,2.83,0,0,0,2.6,2.21A3.66,3.66,0,0,0,40,6.19c1.59-2.63-2.5-5.69-4.6-3.64a.92.92,0,0,0,0,1.26.88.88,0,0,0,1.24-.08Z"/><path class="cls-1" d="M36.68,20.4c.32-.32,1.07.13,1.33.32s.77.78.5,1.24A2,2,0,0,1,37,22.6c-.63,0-.92-.39-1.11-1a1.48,1.48,0,0,1-.1-.67c.06-.21.06-.13.21-.12a2.25,2.25,0,0,1,.89.34c.11.06.56.51.61.49a.33.33,0,0,1,.11-.27l-.23.14a1.92,1.92,0,0,1-.39.17.43.43,0,0,1-.46-.07s-.15-.25-.12-.23-.37.27-.4.21l.29.11a1.64,1.64,0,0,1,.19.19l0-.46.2-.3.42-.15H37a.93.93,0,0,0-.83,1,.87.87,0,0,0,.92.82,1.19,1.19,0,0,0,1.06-1.47A2.18,2.18,0,0,0,36.88,20a1.6,1.6,0,0,0-1.62.11,1.81,1.81,0,0,0-.47,1.94,2.14,2.14,0,0,0,3,1.25,2.44,2.44,0,0,0,1.34-1.08,1.71,1.71,0,0,0-.43-1.92c-.74-.78-2.2-1.58-3.31-1.19-1.26.43-1.5,1.91-1.15,3a2.83,2.83,0,0,0,2.6,2.21A3.67,3.67,0,0,0,40,22.85c1.59-2.63-2.5-5.69-4.6-3.63a.92.92,0,0,0,0,1.26.88.88,0,0,0,1.24-.08Z"/><path class="cls-1" d="M25.57,3.73c.32-.32,1.06.13,1.33.33s.77.77.5,1.24a2,2,0,0,1-1.5.64c-.62,0-.91-.39-1.1-1a1.48,1.48,0,0,1-.1-.67c.06-.21.06-.12.21-.12a2.42,2.42,0,0,1,.89.34c.11.06.56.51.61.5a.33.33,0,0,1,.1-.28,1.07,1.07,0,0,1-.22.15,2.78,2.78,0,0,1-.4.16A.41.41,0,0,1,25.43,5s-.14-.24-.11-.23S25,5,24.92,5s.27.11.29.12a1.14,1.14,0,0,1,.19.18l0-.45.2-.3L26,4.37h-.09a.91.91,0,0,0-.82,1,.87.87,0,0,0,.92.82,1.19,1.19,0,0,0,1.06-1.47,2.14,2.14,0,0,0-1.3-1.31,1.55,1.55,0,0,0-1.62.11,1.8,1.8,0,0,0-.47,1.93,2.13,2.13,0,0,0,3,1.25A2.4,2.4,0,0,0,28,5.58a1.71,1.71,0,0,0-.43-1.92c-.74-.77-2.2-1.57-3.31-1.19s-1.5,1.91-1.15,3a2.82,2.82,0,0,0,2.59,2.21,3.67,3.67,0,0,0,3.17-1.53c1.59-2.63-2.5-5.69-4.6-3.64a.91.91,0,0,0,0,1.26.88.88,0,0,0,1.24-.08Z"/><path class="cls-1" d="M31.12,9.29c.33-.33,1.07.13,1.34.32s.76.78.49,1.24a2,2,0,0,1-1.49.64c-.63,0-.92-.39-1.1-1a1.36,1.36,0,0,1-.1-.67c.06-.21.06-.13.21-.12a2,2,0,0,1,.88.34c.11.06.56.51.62.49a.31.31,0,0,1,.1-.27l-.23.14a1.92,1.92,0,0,1-.39.17.43.43,0,0,1-.46-.07s-.14-.25-.11-.23-.38.27-.41.21l.29.11a2,2,0,0,1,.2.19l0-.46.2-.3.42-.15h-.08a.94.94,0,0,0-.83,1,.88.88,0,0,0,.92.82,1.18,1.18,0,0,0,1.06-1.47,2.15,2.15,0,0,0-1.3-1.32A1.6,1.6,0,0,0,29.7,9,1.8,1.8,0,0,0,29.23,11a2.14,2.14,0,0,0,3,1.26,2.49,2.49,0,0,0,1.35-1.08,1.72,1.72,0,0,0-.43-1.92c-.74-.78-2.21-1.58-3.32-1.2a2.35,2.35,0,0,0-1.15,3,2.83,2.83,0,0,0,2.6,2.22,3.7,3.7,0,0,0,3.17-1.54c1.59-2.63-2.5-5.69-4.6-3.63a.91.91,0,0,0,.05,1.26.88.88,0,0,0,1.23-.08Z"/><path class="cls-1" d="M28.2,16.62c.32-.32,1.06.14,1.33.33s.77.78.5,1.24a2,2,0,0,1-1.49.64c-.63,0-.92-.39-1.11-.95a1.48,1.48,0,0,1-.1-.67c.06-.21.06-.13.21-.12a2.11,2.11,0,0,1,.89.34c.11.06.56.51.61.49a.32.32,0,0,1,.11-.27l-.23.14a1.92,1.92,0,0,1-.39.17.43.43,0,0,1-.46-.07s-.15-.25-.12-.23-.37.27-.4.21l.29.11a1.64,1.64,0,0,1,.19.19l0-.46.2-.3.42-.15h-.08a.93.93,0,0,0-.83,1,.87.87,0,0,0,.92.82,1.19,1.19,0,0,0,1.06-1.47,2.18,2.18,0,0,0-1.3-1.32,1.6,1.6,0,0,0-1.62.11,1.8,1.8,0,0,0-.47,1.93,2.14,2.14,0,0,0,3,1.26,2.44,2.44,0,0,0,1.34-1.08,1.71,1.71,0,0,0-.43-1.92c-.74-.78-2.2-1.58-3.31-1.2a2.34,2.34,0,0,0-1.15,3,2.82,2.82,0,0,0,2.6,2.22,3.7,3.7,0,0,0,3.16-1.54c1.59-2.63-2.5-5.69-4.6-3.63A.91.91,0,0,0,27,16.71a.89.89,0,0,0,1.24-.09Z"/><path class="cls-1" d="M22.64,22.18c.33-.32,1.07.13,1.33.33s.77.77.5,1.24a2,2,0,0,1-1.49.64c-.63,0-.92-.39-1.1-1a1.48,1.48,0,0,1-.11-.67c.07-.21.07-.12.22-.12a2.31,2.31,0,0,1,.88.34,6.8,6.8,0,0,0,.62.5.33.33,0,0,1,.1-.28,1.14,1.14,0,0,1-.23.15,1.88,1.88,0,0,1-.39.16.41.41,0,0,1-.46-.07s-.14-.24-.11-.23-.38.28-.41.21l.29.12a2.23,2.23,0,0,1,.2.18l0-.45.2-.3.42-.15H23a.93.93,0,0,0-.83,1,.87.87,0,0,0,.92.82,1.18,1.18,0,0,0,1.06-1.47,2.11,2.11,0,0,0-1.3-1.31,1.55,1.55,0,0,0-1.62.11,1.8,1.8,0,0,0-.47,1.93,2.14,2.14,0,0,0,3,1.25A2.45,2.45,0,0,0,25.09,24a1.73,1.73,0,0,0-.43-1.92c-.74-.77-2.21-1.57-3.32-1.19a2.35,2.35,0,0,0-1.15,3,2.81,2.81,0,0,0,2.6,2.21A3.69,3.69,0,0,0,26,24.64C27.55,22,23.46,19,21.36,21a.91.91,0,0,0,.05,1.26.87.87,0,0,0,1.23-.08Z"/><path class="cls-1" d="M11.53,5.51c.33-.32,1.07.14,1.33.33s.77.78.5,1.24a2,2,0,0,1-1.49.64c-.63,0-.92-.39-1.1-1a1.5,1.5,0,0,1-.11-.67c.06-.21.07-.13.22-.12a2,2,0,0,1,.88.34c.11.06.56.51.62.49a.34.34,0,0,1,.1-.28,1.14,1.14,0,0,1-.23.15,1.92,1.92,0,0,1-.39.17.43.43,0,0,1-.46-.07s-.14-.25-.11-.23-.38.27-.41.21l.29.11a2,2,0,0,1,.2.19l0-.46.2-.3L12,6.15h-.08a.94.94,0,0,0-.83,1,.88.88,0,0,0,.92.82A1.18,1.18,0,0,0,13,6.47a2.1,2.1,0,0,0-1.3-1.32,1.6,1.6,0,0,0-1.62.11,1.8,1.8,0,0,0-.47,1.93,2.13,2.13,0,0,0,3,1.25A2.43,2.43,0,0,0,14,7.37a1.72,1.72,0,0,0-.43-1.92c-.75-.78-2.21-1.58-3.32-1.2a2.34,2.34,0,0,0-1.15,3,2.81,2.81,0,0,0,2.6,2.21A3.66,3.66,0,0,0,14.84,8c1.6-2.63-2.5-5.69-4.6-3.64a.94.94,0,0,0,0,1.27.88.88,0,0,0,1.24-.09Z"/><path class="cls-1" d="M70.19,142.52l6,2.31a2,2,0,0,0,.73.14,2.23,2.23,0,0,0,.91-.2,2.08,2.08,0,0,0,1.14-1.17l2.89-7.44a2.15,2.15,0,0,0-.07-1.8,2.12,2.12,0,0,0-3.93.22L75.71,140l-4-1.53a2.21,2.21,0,0,0-2.81,1.22,2.21,2.21,0,0,0,1.25,2.8Z"/><path class="cls-1" d="M107.24,64.69l-57-22.11-.09,0a2.12,2.12,0,0,0-2.41,1.37L18.2,120a2.13,2.13,0,0,0,.06,1.64,2.16,2.16,0,0,0,1.17,1.15l38.8,15A2,2,0,0,0,59,138a2.26,2.26,0,0,0,2-1.37A2.15,2.15,0,0,0,61,135s0,0,0,0c-9.6-2.94-18.77-7-28.26-10.29-3-1-7.32-1.46-9.23-4.41-2-3.11-.21-7.29,1-10.34,2-5.12,4.43-10.06,6.82-15,2.46-5.13,4.15-10.47,6.33-15.71,2.07-5,4.56-9.84,6.1-15s2.62-10.17,5-14.94a2.57,2.57,0,0,1,.8-1,2.26,2.26,0,0,1,3-1.2c8.35,3,16.42,6.64,24.64,10,8,3.25,16.45,5.5,24.37,9.08a2.39,2.39,0,0,1,1.1,1,2.42,2.42,0,0,1,1.94,3.28c-3.45,10-7.39,19.81-11.47,29.56q-3,7.14-6,14.27c-1.5,3.57-2.67,7.26-4.07,10.87a2,2,0,0,0,.6.4,2.2,2.2,0,0,0,2.8-1.25l22-56.72A2.24,2.24,0,0,0,107.24,64.69Z"/><path class="cls-1" d="M130.82,44.65,51.86.29A2.18,2.18,0,0,0,51.24,0a2.22,2.22,0,0,0-2.48,1.35L43.55,14.83a2.19,2.19,0,0,0,.93,2.6L87.3,43.21,41.71,25.53a2.22,2.22,0,0,0-1.64.06,2.18,2.18,0,0,0-1.15,1.18L.14,126.77a2.13,2.13,0,0,0,.06,1.64,2.14,2.14,0,0,0,1.16,1.15L85,162a2.08,2.08,0,0,0,.73.13,2.21,2.21,0,0,0,2.06-1.37l19.11-49.25a2.22,2.22,0,0,0-1.23-2.81,1.84,1.84,0,0,0-.77-.13,95.45,95.45,0,0,0-4,11.38c-1.24,4-2.79,7.79-4.24,11.68s-2.88,8.1-4.73,12-3.45,8.16-5.64,12a2.51,2.51,0,0,1-1.82,1.31,2.72,2.72,0,0,1-2.86.13c-4.79-2.31-10.37-2.93-15.32-5s-9.75-4.3-14.6-6.49a273.24,273.24,0,0,0-31.89-11.87,2.6,2.6,0,0,1-1.48-1.16c-4.06-1.53-8.08-3.16-12-5.08a2.32,2.32,0,0,1-1.18-3.11,2.77,2.77,0,0,1,.62-1.25,9.32,9.32,0,0,0,1.22-1.88l1.59-4.09c.42-1.5.81-3,1.31-4.39,1.33-3.68,3-7.21,4.1-11,2.46-8.19,5.09-16.35,8.28-24.29,3.28-8.16,6.61-16.29,9.71-24.52,1.5-4,3.43-7.8,4.64-11.86,1-3.47,1.33-7,3.15-10.15a2.49,2.49,0,0,1,3.21-1.13,2.63,2.63,0,0,1,1,.07c5.42,1.39,10.37,3.92,15.3,6.49,2.44,1.27,4.92,2.41,7.41,3.5l11,4.24c10.71,3.7,21.77,6.27,32.44,10.08-3.42-4.19-8.75-6.76-13.42-9.35-8-4.44-16.21-8.6-23.94-13.54A230.6,230.6,0,0,0,52.11,19.34c-2.3-1.16-4.5-2.88-4.43-5.68s1.57-5.3,2.63-7.7c.8-1.81,2.63-1.74,3.85-.76,13,4.91,23.74,13.12,35.56,20.25,6.25,3.76,12.76,7.13,19.33,10.31,2.82,1.36,5.88,2.26,8.61,3.81s4.72,3.9,7.53,5.07a2.9,2.9,0,0,1,1.77,3,2.66,2.66,0,0,1,.11,2.66c-4.41,8.8-7.49,18.13-10.57,27.46-1.46,4.44-2.93,8.88-4.56,13.26-1.19,3.22-2.23,6.5-3.37,9.74a1.25,1.25,0,0,0,.12.08,2.22,2.22,0,0,0,2.79-1.25l20.27-52.24A2.23,2.23,0,0,0,130.82,44.65Z"/></g></g></g></svg>