<svg xmlns="http://www.w3.org/2000/svg" viewBox="0 0 180.19 146.24"><defs><style>.cls-1,.cls-2,.cls-6{fill:#dc7772;}.cls-1{fill-rule:evenodd;}.cls-2{font-size:14.47px;font-family:Montserrat-SemiBold, Montserrat;font-weight:600;}.cls-3{letter-spacing:-0.01em;}.cls-4{letter-spacing:-0.01em;}.cls-5{letter-spacing:0em;}</style></defs><title>Asset 21</title><g id="Layer_2" data-name="Layer 2"><g id="Layer_1-2" data-name="Layer 1"><g id="ART:_Program_benefits_how_it_works" data-name="ART: Program benefits + how it works"><path class="cls-1" d="M178.73,113c-1.86-37.27-5.18-74.41-9.12-105.75-3.82-1.1-7.92-.12-9.72,0a10.47,10.47,0,0,0-3-6.08c-4.73-1.59-14.63-2.62-15.2,3.61a2.11,2.11,0,0,1,1.45-.77l.38,0,.15,0,.15,0,.39-.06,1.27-.2c1-.15,2-.3,3-.36A9.31,9.31,0,0,1,154,4.61,1.79,1.79,0,0,1,154.64,7a1.77,1.77,0,0,1-2.39.63,4.25,4.25,0,0,0-.54-.32l-.21-.1h0c-1.67-.07-3.28-.12-4.84-.16l-.76.11c-.93.15-1.86.29-2.79.39A1.45,1.45,0,0,1,141.82,7c-3.39,0-6.63.08-9.89.34C130.46.18,116.61.9,110.66,3.64c-1.89,1.44,0,3.5-1.21,4.86a181.51,181.51,0,0,0-23.71.61c.67-4.72-2.12-6-4.25-7.9C75.85,1.68,67,1.2,67.72,6.9a2,2,0,0,1,.8-.52c3.87-1.29,10.22-3.61,13,.8a1.77,1.77,0,0,1-.62,2.38,1.71,1.71,0,0,1-2.05-.25c-9.54,1.38-20.32.65-31.37,2.84C45,.28,23.77,3.11,22.53,14c-1.14-1-2.2,0-3.44.88a5.57,5.57,0,0,1-.14.66C12.66,35,11.33,55.05,8,75.07,5,92.59,1.11,110.25,0,128c1.66-2.52,3.84-4.69,6.86-5.38.2,0,.4,0,.59-.07a4.75,4.75,0,0,1,2.32-.43,5.73,5.73,0,0,1,4.72,2.66,14.07,14.07,0,0,1,1.77,1.68c3.46,3.93,5.64,8.85,7.55,13.8,2.2-2.93-.35-8.71-1.89-12.67-3.3-8.54-8.39-12.53-18.23-9.73C8.17,85.4,12.63,55.13,18.9,26.48c0-.32,0-.63,0-.95a1.76,1.76,0,0,1,.42-1.06c.06-.26.11-.52.16-.77,0,.18,0,.38,0,.57a1.71,1.71,0,0,1,2.87,1.26c-.43,8.92,1.54,17.79,1.9,26.69.32,8.09.55,16.17,1.37,24.23s2,16.25,2.87,24.38c.85,7.85,1.26,15.71,1.36,23.6.07,5.53.15,11.13,1.27,16.54a4.79,4.79,0,0,0,1.09.63c4.73-2.71,2.09-9,1.82-13.37C32.57,104.3,29.94,80.43,28,60.77c6.8,8.06,25,11.86,37.68,6.69.25.13.53.26.78.4a4.58,4.58,0,0,1,1.66-.22c8.91.5,17.27,3,25.84,5.25a71.81,71.81,0,0,0,27,2.08,48.07,48.07,0,0,0,24.67-10c3-2.41,5.68-5.31,9.14-7.11,3.26-1.71,7-1.88,10.35-3.28a13.27,13.27,0,0,1,2.59-1.78c.21-.26.43-.51.62-.78a8.4,8.4,0,0,0,1.2-2.23,1.14,1.14,0,0,1,2.24.3v6.45a4.76,4.76,0,0,1,.65,2.13,4.22,4.22,0,0,1,.76,2.64c-.25,11.38,1.82,22.58,2.2,33.93.36,10.88-.41,21.85,1.53,32.62a4.86,4.86,0,0,1-5.56,5.57c-9.45,1.34-19,1.32-28.55,2-10.85.8-21.68,1.77-32.5,2.82-22.21,2.13-44.42,4.26-66.75,4.35a4.07,4.07,0,0,1-3.92-2.48c.94,7.4,9.64,6.16,16.35,5.68,34.64-2.49,81.16-8.51,118.51-8.51,1.54-3.94,4.61-3.85,5.47-7.9C180.84,125.21,179,118.28,178.73,113ZM115.91,5c.22,0,.44,0,.65,0l.26,0h0c.37-.07.75-.13,1.12-.21.76-.16,1.51-.33,2.28-.45a8.76,8.76,0,0,1,2.89,0,5.44,5.44,0,0,1,2.45,1.24,1.76,1.76,0,0,1,0,2.46,1.78,1.78,0,0,1-2.46,0l.11.1L123.09,8l-.16-.1h-3a20.69,20.69,0,0,1-4,.6,1.74,1.74,0,1,1,0-3.48ZM40.66,64.39A23.46,23.46,0,0,1,36.51,62a14.87,14.87,0,0,1-6.08-5.52,19.29,19.29,0,0,1-1.81-4.24,14.45,14.45,0,0,1,1-13.28c5.64-9.2,19.43-12.21,29.41-11.06A4.66,4.66,0,0,1,63,31.08c11.49,4.34,18.8,19.21,9.09,29.34C64.3,68.55,50.39,68.59,40.66,64.39ZM167.79,43.75c-3.28,15.72-43.9,18.53-39.51-4.86.66.15.41,1.21,1.22,1.22-3.71-13.73,23.25-21.42,34.64-9.12,1.23.19-.12-1.75-.61-1.82.12-.69.61-.34.61,0C166.76,32.75,168.59,39.92,167.79,43.75Zm-2.1-14.3c-.06-.26-.1-.53-.16-.79h0a38.5,38.5,0,0,0-17.7-6.27c-5.24-.46-10.62.29-14.89,3.57a23.61,23.61,0,0,0-8.11,11.78c-1.34,4.6-.69,9.45,2.94,12.82,4.51,4.17,10.58,8.38,17,8.19a1.63,1.63,0,0,1,1.65,2l.14,0a2.78,2.78,0,0,1-.21.27,1.63,1.63,0,0,1-.73.94c-6.29,7.55-19.36,10.46-31.27,11-15.35.63-32.53-3.39-43.15-8.51,4.46-3.5,7.76-11.87,7.29-19.45-.27-4.51-3.69-7.32-4.25-10.94-5-4.89-13.82-7.72-22.49-7.9-12.37-.26-20.38,5.61-26.13,12.15-.51-6.58-1.33-12.85-1.21-20,.69-.95,1.56-2.08,2.57-3.23a1.75,1.75,0,0,1-.55-2.32A11.83,11.83,0,0,1,29.5,9.61a14.07,14.07,0,0,1,7.75-2.89,5.72,5.72,0,0,1,3.88,1.37,6.23,6.23,0,0,1,1.77,4.17A1.75,1.75,0,0,1,41.15,14a1.6,1.6,0,0,1-1.35-.73c-3.39,1.79-10.56-.2-12.41,3.14a4.25,4.25,0,0,0,.83,1.83,1.86,1.86,0,0,1,.64-.06c3.68.35,7.18-.43,10.75-1.23a1.94,1.94,0,0,1,1.94.71,7.4,7.4,0,0,1,1,0,23.34,23.34,0,0,0,0,2.77,1.8,1.8,0,0,0,2.06.53,4.93,4.93,0,0,0,3.25-4.05,1.68,1.68,0,0,1,1.22-1.22,159,159,0,0,1,28.08-1.78,1.77,1.77,0,0,1,1.74,1.74,10.4,10.4,0,0,0,.6,3.86c3.65.16,3.72-3.28,5-5.5l1.11-.07a1.84,1.84,0,0,1,1.94-.84c1.66.24,3.33.4,5,.5,4.38-.14,8.88-.17,13.28-.2,6-.45,12-1.2,18-1.65a1.75,1.75,0,0,1,1.74,1.74c0,1.39.39,3.34,2.17,3.11s2.75-2,3-3.57a1.8,1.8,0,0,1,1.68-1.28c6.44-.83,12.94-.85,19.42-1.3a1.75,1.75,0,0,1,1.68,1.28c.15,1.09.28,1.86,1.46,1.91a11.14,11.14,0,0,0,3.78-.92l.61-.23a8.31,8.31,0,0,1,1-.35c2.14-.79,4.35-1.56,6.64-1.19a1.76,1.76,0,0,1,1.28,1.68c0,5.31-.43,10.72.8,15.93C169.57,30.7,166.21,31.63,165.69,29.45Z"/><text class="cls-2" transform="matrix(1, -0.08, 0.08, 1, 38.32, 54.99)"><tspan class="cls-3">J</tspan><tspan x="7.41" y="0">AN</tspan></text><text class="cls-2" transform="matrix(1, -0.08, 0.08, 1, 84.74, 51.87)">FEB</text><text class="cls-2" transform="matrix(1, -0.08, 0.08, 1, 41.93, 101.31)">A<tspan class="cls-4" x="10.84" y="0">P</tspan><tspan class="cls-5" x="21.2" y="0">R</tspan></text><text class="cls-2" transform="matrix(1, -0.08, 0.08, 1, 87.76, 97.69)">JUN</text><text class="cls-2" transform="matrix(1, -0.08, 0.08, 1, 134.78, 94.07)">JUL</text><text class="cls-2" transform="matrix(1, -0.08, 0.08, 1, 129.96, 48.25)">MAR</text><path class="cls-6" d="M133.74,68.86l5.42-.64C137.4,68.38,135.65,68.54,133.74,68.86Z"/></g></g></g></svg>