<svg xmlns="http://www.w3.org/2000/svg" viewBox="0 0 156.47 124.22"><defs><style>.cls-1{fill:#d35b5b;fill-rule:evenodd;}</style></defs><title>Asset 19</title><g id="Layer_2" data-name="Layer 2"><g id="Layer_1-2" data-name="Layer 1"><g id="ART:_Program_benefits_how_it_works" data-name="ART: Program benefits + how it works"><g id="subscription1.psd"><path class="cls-1" d="M151.49,46.75C150.3,32,148.63,16.67,146.14,3.83a18.61,18.61,0,0,0-2.6-1.4c-3.35,0-6.69-.11-10-.22-7.8-.28-15.6-.57-23.39-1a1.7,1.7,0,0,1-1.2-.55c-4.12,0-8.1.28-12.13.05C67.67-.91,34.88.77.33.34A156.33,156.33,0,0,0,.94,28C2.07,37.57,3.36,47.17,4.6,56.78,5.86,66.65,7,76.54,7.86,86.45c.64,7.11.37,14.37,1.34,21.42.33.2.66.41,1,.63l-.87.11a44.11,44.11,0,0,0,1.85,7.79,3.48,3.48,0,0,1,.1.44,37.87,37.87,0,0,0,8.86,2c38.74,4.64,75.85,3.49,114.81,5,6.79.26,14.05.88,17.4-.41,3-1.15,3-4,4.15-6.22C155.54,93,153.38,70.11,151.49,46.75ZM10.39,2.58a3.62,3.62,0,0,1,1.52-.3c21.41.06,42.75.86,64.17.51,19.52-.32,38.72,2.34,58.18,2.13a3.39,3.39,0,0,1,2.41.89,27.27,27.27,0,0,0,2.85-.19l.29,0a1.84,1.84,0,0,1,2,.81,1.75,1.75,0,0,1-.27,2.12c-1.1.91-2.26,1.74-3.39,2.59l-.13.11c-5.08,6.53-11.85,11.42-17.49,17.44-3.18,3.4-6,7-9.42,10.21A54.91,54.91,0,0,1,99.76,47a2.5,2.5,0,0,1-3.57-2.73c-2.12-9.5-20.39-6.21-23.44,0C70.09,38.75,63,36,54.51,37.63c-.35.26-.74.49-1.1.75a4.1,4.1,0,0,1-1.31,1.75,2.5,2.5,0,0,0-.07.41l-.24-.19a3.46,3.46,0,0,1-4.44-.41C34.88,28.1,19.87,19.49,6.67,8.53,3.52,5.91,7.05,1.67,10.39,2.58ZM91.23,51.26c-1.44,3.61-4.44,6.46-7.26,9-1.28,1.17-2.59,2.3-3.82,3.53-1.9,1.88-3.64,3.93-5.66,5.69a1.73,1.73,0,0,1-1.35.44,1.67,1.67,0,0,1-1.57-.8,29.61,29.61,0,0,0-5.36-5.6c-1.86-1.66-3.58-3.45-5.42-5.14a31.45,31.45,0,0,1-4.76-5A10.42,10.42,0,0,1,54.44,49c-.49-3.42.72-7,4.57-7.45,3.08-.33,6.3,1.22,8.85,2.79,2.28,1.41,5,3.32,6.24,5.82a1.46,1.46,0,0,1,.07.19,44.82,44.82,0,0,1,6.51-5c2.21-1.36,5.24-3,7.91-2.06C91.82,44.43,92.35,48.47,91.23,51.26Zm60,69c-8.74,1.56-17.86.12-26.69-.63l-6.67-.33c-4.23-.19-8.42-.09-12.65,0-7.73.14-15.48,0-23.21-.14s-15.22-.2-22.8-.62-14.88-1.12-22.37-1.25a165.46,165.46,0,0,1-22-1.47,1.41,1.41,0,0,1-1.25-1.71,1.74,1.74,0,0,1-.47-2.35,2.36,2.36,0,0,1-1.5-2.69l-.62-.09a2.05,2.05,0,0,1,.86-1.42c-.25-2.12-.1-4.23-.18-6.39-.1-2.84-.55-5.67-.79-8.51a95,95,0,0,1,.31-13.29c-.06-.77-.11-1.54-.2-2.3-1.3-11.35-2.82-25.17-4.14-39-.8-8.41-3.2-17.25-2.49-25.28.24,0,.33,0,.37.18a1.6,1.6,0,0,1,2.63-.31,63.68,63.68,0,0,0,5.39,5,2,2,0,0,1,1.11.18c3.4,1.67,6,4.6,8.66,7.18,1.46,1.39,3.06,2.63,4.57,4,.88.78,1.74,1.59,2.58,2.41a114.53,114.53,0,0,1,11.16,7.76c3,2.48,6.72,4.65,9,7.91a1.47,1.47,0,0,1-.09,1.9C53.38,61.61,64.5,66.84,71.09,76.59,80.89,70.65,91,65,95.54,53.8c12.76-6.41,21.27-17.06,31.79-25.7,4.31-5.54,9.55-10.4,14.36-15.46,1.47-1.55,3.75.57,2.7,2.19a2.17,2.17,0,0,1,1.2,2c0,7.47.19,14.94.79,22.39.53,6.67,1.62,13.22,2.53,19.84a169.88,169.88,0,0,1,1.31,19.39c.3,13,.93,25.87,1.64,38.81C152.81,118.15,152.83,119.94,151.25,120.22Z"/></g></g></g></g></svg>